<svg width="40" height="40" viewBox="0 0 40 40" fill="none" xmlns="http://www.w3.org/2000/svg">
<path d="M6.29605 19.9041C4.71601 17.149 3.95309 14.8993 3.49307 12.6189C2.81271 9.24612 4.36969 5.95151 6.94898 3.84929C8.03909 2.9608 9.28873 3.26436 9.93335 4.42083L11.3886 7.03168C12.5422 9.1011 13.1189 10.1358 13.0045 11.2328C12.8901 12.3298 12.1123 13.2233 10.5566 15.0102L6.29605 19.9041ZM6.29605 19.9041C9.49419 25.4806 14.5131 30.5023 20.0961 33.7041M20.0961 33.7041C22.8512 35.2842 25.1009 36.0471 27.3813 36.5071C30.754 37.1875 34.0487 35.6305 36.1509 33.0512C37.0394 31.9611 36.7358 30.7114 35.5793 30.0668L32.9685 28.6115C30.8991 27.458 29.8644 26.8813 28.7674 26.9957C27.6704 27.1101 26.7769 27.8879 24.99 29.4435L20.0961 33.7041Z" stroke="#7B65FB" stroke-width="1.5" stroke-linejoin="round"/>
</svg>
