<svg width="29" height="35" viewBox="0 0 29 35" fill="none" xmlns="http://www.w3.org/2000/svg">
<path d="M5.75 27.4165C2.70179 28.1026 0.75 29.1569 0.75 30.3393C0.75 32.407 6.71954 34.0832 14.0833 34.0832C21.4471 34.0832 27.4167 32.407 27.4167 30.3393C27.4167 29.1569 25.4649 28.1026 22.4167 27.4165" stroke="#7B65FB" stroke-width="1.5" stroke-linecap="round"/>
<path d="M18.25 12.4167C18.25 14.7179 16.3845 16.5833 14.0833 16.5833C11.7821 16.5833 9.91663 14.7179 9.91663 12.4167C9.91663 10.1155 11.7821 8.25 14.0833 8.25C16.3845 8.25 18.25 10.1155 18.25 12.4167Z" stroke="#7B65FB" stroke-width="1.5"/>
<path d="M16.179 26.5726C15.6168 27.114 14.8655 27.4167 14.0835 27.4167C13.3016 27.4167 12.5503 27.114 11.9881 26.5726C6.84046 21.5846 -0.0580577 16.0126 3.30614 7.92289C5.12513 3.54887 9.49153 0.75 14.0835 0.75C18.6756 0.75 23.042 3.54888 24.861 7.92289C28.2209 16.0024 21.3393 21.6018 16.179 26.5726Z" stroke="#7B65FB" stroke-width="1.5"/>
</svg>
