<svg width="132" height="33" viewBox="0 0 132 33" fill="none" xmlns="http://www.w3.org/2000/svg">
<path fill-rule="evenodd" clip-rule="evenodd" d="M11.3634 0.0326257C11.2296 0.0554274 10.8137 0.123734 10.4391 0.184571C9.53225 0.331701 7.9652 0.854764 7.07432 1.30765C4.02748 2.85649 1.6967 5.57884 0.610944 8.85687C0.104257 10.3864 -0.0489751 11.5361 0.0129987 13.3434C0.0680649 14.9536 0.221005 15.7882 0.715336 17.1764C2.2677 21.5368 6.05316 24.7574 10.5336 25.5298L11.601 25.7139L14.5225 24.0114C16.1293 23.0751 17.63 22.2112 17.8575 22.0916C18.0849 21.9721 18.2697 21.8234 18.2681 21.7612C18.2665 21.6991 17.05 20.9518 15.5646 20.1004C13.2002 18.745 12.8101 18.5522 12.4299 18.5509C10.6341 18.5449 8.50613 17.1744 7.69376 15.5004C6.59565 13.2379 7.00524 10.5835 8.72348 8.82552C10.0839 7.43373 12.1546 6.84482 14.0775 7.30262C16.4499 7.86755 18.3682 10.201 18.3682 12.5216C18.3682 13.1128 18.4053 13.1592 19.2615 13.6382C20.2831 14.2099 21.6613 15.7171 22.027 16.6628C22.0697 16.7733 22.336 16.5266 22.4467 16.2739C22.6767 15.7491 23.8067 14.6836 24.6678 14.1797L25.4704 13.71L25.4701 12.6176C25.4692 9.3761 24.1959 6.31802 21.8226 3.85751C20.0382 2.00743 17.818 0.775744 15.255 0.214253C14.5618 0.0623073 11.9141 -0.0612346 11.3634 0.0326257ZM11.3649 13.1254C11.367 16.4786 11.2373 16.1946 13.3092 17.382C14.1386 17.8574 14.8609 18.2839 14.9144 18.3298C15.1095 18.4971 21.2068 21.9875 21.3505 22.014C21.4779 22.0376 21.4969 21.837 21.4876 20.5672C21.4815 19.7564 21.4302 18.8284 21.3734 18.5051C21.2462 17.7801 20.8855 16.8654 20.5538 16.4259C20.4165 16.2441 20.3376 16.0953 20.3785 16.0953C20.4192 16.0953 20.2381 15.8752 19.9758 15.6062C19.7135 15.3372 19.4798 15.1362 19.4566 15.1597C19.4334 15.1831 19.2775 15.098 19.1103 14.9707C18.9429 14.8433 18.5434 14.5967 18.2223 14.4226C17.9012 14.2486 16.305 13.3265 14.675 12.3734C13.0451 11.4204 11.6331 10.6089 11.5374 10.57C11.3728 10.5033 11.3634 10.6415 11.3649 13.1254ZM30.5782 12.1365C25.2888 15.2342 24.7141 15.5889 24.1865 16.0811C23.4811 16.7393 22.9836 17.7111 22.8459 18.6998C22.7192 19.6104 22.7166 21.9923 22.8425 21.9923C22.8953 21.9923 23.0236 21.9189 23.1273 21.8291C23.231 21.7394 25.1907 20.5729 27.4821 19.2369C30.7202 17.3491 31.6876 16.7406 31.8245 16.5059C31.9819 16.2364 32.0005 15.9475 31.998 13.8165C31.9965 12.5034 31.961 11.4216 31.9191 11.4124C31.8772 11.4032 31.2738 11.7291 30.5782 12.1365ZM18.563 23.0828C18.2817 23.1992 14.744 25.2461 14.6712 25.3345C14.6445 25.3669 14.0147 25.745 13.2718 26.1746C12.4108 26.6724 11.8287 27.0775 11.6665 27.2917L11.412 27.6278L11.3833 30.3139C11.363 32.2131 11.3858 33 11.4611 33C11.7188 33 18.5941 28.9334 19.4987 28.246C20.7429 27.3006 21.4783 25.6307 21.4807 23.7452L21.4815 23.1885L20.7275 23.1285C19.0029 22.9911 18.7952 22.9866 18.563 23.0828ZM24.0111 23.0412C23.7703 23.0587 23.3871 23.0979 23.1598 23.1284L22.7463 23.1838V23.845C22.7463 25.456 23.5105 26.9927 24.7765 27.9273C25.3883 28.3791 31.8062 32.1278 31.9087 32.0933C32.0309 32.0522 32.0302 27.498 31.908 27.1856C31.7494 26.7803 31.3679 26.5231 28.2012 24.6876C25.0204 22.844 25.2868 22.9487 24.0111 23.0412Z" fill="#9179D2"/>
<path d="M50.608 27.724C48.496 27.724 46.5547 27.2333 44.784 26.252C43.0347 25.2707 41.6373 23.9053 40.592 22.156C39.568 20.3853 39.056 18.4013 39.056 16.204C39.056 14.0067 39.568 12.0333 40.592 10.284C41.6373 8.53467 43.0347 7.16933 44.784 6.188C46.5547 5.20667 48.496 4.716 50.608 4.716C52.72 4.716 54.6507 5.20667 56.4 6.188C58.1707 7.16933 59.5573 8.53467 60.56 10.284C61.584 12.0333 62.096 14.0067 62.096 16.204C62.096 18.4013 61.584 20.3853 60.56 22.156C59.536 23.9053 58.1493 25.2707 56.4 26.252C54.6507 27.2333 52.72 27.724 50.608 27.724ZM50.608 22.732C52.4 22.732 53.8293 22.1347 54.896 20.94C55.984 19.7453 56.528 18.1667 56.528 16.204C56.528 14.22 55.984 12.6413 54.896 11.468C53.8293 10.2733 52.4 9.676 50.608 9.676C48.7947 9.676 47.344 10.2627 46.256 11.436C45.1893 12.6093 44.656 14.1987 44.656 16.204C44.656 18.188 45.1893 19.7773 46.256 20.972C47.344 22.1453 48.7947 22.732 50.608 22.732Z" fill="#9179D2"/>
<path d="M75.7003 27.5L72.2763 22.54L69.3963 27.5H63.4763L69.3643 18.38L63.3163 9.644H69.4603L72.8843 14.572L75.7643 9.644H81.6843L75.7003 18.636L81.8443 27.5H75.7003ZM86.7048 7.788C85.7448 7.788 84.9554 7.51067 84.3368 6.956C83.7394 6.38 83.4408 5.676 83.4408 4.844C83.4408 3.99067 83.7394 3.28667 84.3368 2.732C84.9554 2.156 85.7448 1.868 86.7048 1.868C87.6434 1.868 88.4114 2.156 89.0088 2.732C89.6274 3.28667 89.9368 3.99067 89.9368 4.844C89.9368 5.676 89.6274 6.38 89.0088 6.956C88.4114 7.51067 87.6434 7.788 86.7048 7.788ZM89.4248 9.644V27.5H83.9528V9.644H89.4248ZM98.8623 3.82V27.5H93.3903V3.82H98.8623ZM108.3 3.82V27.5H102.828V3.82H108.3ZM111.177 18.54C111.177 16.7053 111.519 15.0947 112.201 13.708C112.905 12.3213 113.855 11.2547 115.049 10.508C116.244 9.76133 117.577 9.388 119.049 9.388C120.308 9.388 121.407 9.644 122.345 10.156C123.305 10.668 124.041 11.34 124.553 12.172V9.644H130.025V27.5H124.553V24.972C124.02 25.804 123.273 26.476 122.313 26.988C121.375 27.5 120.276 27.756 119.017 27.756C117.567 27.756 116.244 27.3827 115.049 26.636C113.855 25.868 112.905 24.7907 112.201 23.404C111.519 21.996 111.177 20.3747 111.177 18.54ZM124.553 18.572C124.553 17.2067 124.169 16.1293 123.401 15.34C122.655 14.5507 121.737 14.156 120.649 14.156C119.561 14.156 118.633 14.5507 117.865 15.34C117.119 16.108 116.745 17.1747 116.745 18.54C116.745 19.9053 117.119 20.9933 117.865 21.804C118.633 22.5933 119.561 22.988 120.649 22.988C121.737 22.988 122.655 22.5933 123.401 21.804C124.169 21.0147 124.553 19.9373 124.553 18.572Z" fill="#C0B5DE"/>
</svg>
