<svg width="32" height="32" viewBox="0 0 32 32" fill="none" xmlns="http://www.w3.org/2000/svg">
<path d="M15.9976 2.66681C11.9873 2.66681 9.38695 5.3588 6.31166 6.34001C5.06122 6.73898 4.436 6.93847 4.18298 7.21968C3.92995 7.50088 3.85586 7.91181 3.70767 8.73365C2.12195 17.5281 5.58791 25.6588 13.8538 28.8234C14.7419 29.1635 15.1859 29.3335 16.002 29.3335C16.8181 29.3335 17.2621 29.1635 18.1502 28.8234C26.4155 25.6587 29.8782 17.5281 28.292 8.73364C28.1437 7.91166 28.0696 7.50067 27.8165 7.21946C27.5635 6.93825 26.9383 6.73887 25.6879 6.34012C22.6114 5.359 20.0082 2.66681 15.9976 2.66681Z" stroke="white" stroke-width="1.5" stroke-linecap="round" stroke-linejoin="round"/>
<path d="M16 9.3335L16 12.0002" stroke="white" stroke-width="1.5" stroke-linecap="round"/>
</svg>
